<svg width="11" height="15" viewBox="0 0 11 15" fill="none" xmlns="http://www.w3.org/2000/svg">
<path d="M10.0833 5.625H9.16667V3.75C9.16667 1.67906 7.52492 0 5.5 0C3.47508 0 1.83333 1.67906 1.83333 3.75V5.625H0.916667C0.409979 5.625 0 6.0443 0 6.5625V14.0625C0 14.5807 0.409979 15 0.916667 15H10.0833C10.59 15 11 14.5807 11 14.0625V6.5625C11 6.0443 10.59 5.625 10.0833 5.625ZM5.5 11.25C4.99331 11.25 4.58333 10.8307 4.58333 10.3125C4.58333 9.7943 4.99331 9.375 5.5 9.375C6.00669 9.375 6.41667 9.7943 6.41667 10.3125C6.41667 10.8307 6.00669 11.25 5.5 11.25ZM7.33333 5.625H3.66667V3.75C3.66667 2.71453 4.48754 1.875 5.5 1.875C6.51246 1.875 7.33333 2.71453 7.33333 3.75V5.625Z" fill="#464646"/>
</svg>
